<?xml version="1.0" encoding="us-ascii" standalone="no"?><svg xmlns="http://www.w3.org/2000/svg" xmlns:xlink="http://www.w3.org/1999/xlink" contentStyleType="text/css" height="2018px" preserveAspectRatio="none" style="width:696px;height:2018px;background:#FFFFFF;" version="1.1" viewBox="0 0 696 2018" width="696px" zoomAndPan="magnify"><defs/><g><!--cluster FoodMenu--><g id="cluster_FoodMenu"><rect fill="none" height="2005" rx="2.5" ry="2.5" style="stroke:#181818;stroke-width:1.0;" width="379" x="112" y="7"/><text fill="#000000" font-family="sans-serif" font-size="14" font-weight="bold" lengthAdjust="spacing" textLength="76" x="263.5" y="23.5332">FoodMenu</text></g><g id="elem_UC1"><ellipse cx="301.6681" cy="538.2336" fill="#F1F1F1" rx="99.1681" ry="22.2336" style="stroke:#181818;stroke-width:0.5;"/><text fill="#000000" font-family="sans-serif" font-size="14" lengthAdjust="spacing" textLength="159" x="222.1681" y="541.9621">Access/Read Food Menu</text></g><g id="elem_UC2"><ellipse cx="301.2516" cy="1976.9503" fill="#F1F1F1" rx="82.7516" ry="18.9503" style="stroke:#181818;stroke-width:0.5;"/><text fill="#000000" font-family="sans-serif" font-size="14" lengthAdjust="spacing" textLength="121" x="240.7516" y="1980.6788">Update Food Menu</text></g><g id="elem_UC3"><ellipse cx="301.5066" cy="62.2013" fill="#F1F1F1" rx="84.0066" ry="19.2013" style="stroke:#181818;stroke-width:0.5;"/><text fill="#000000" font-family="sans-serif" font-size="14" lengthAdjust="spacing" textLength="124" x="239.5066" y="65.9298">Receive Notification</text></g><g id="elem_UC4"><ellipse cx="301.5075" cy="614.2015" fill="#F1F1F1" rx="81.5075" ry="18.7015" style="stroke:#181818;stroke-width:0.5;"/><text fill="#000000" font-family="sans-serif" font-size="14" lengthAdjust="spacing" textLength="118" x="242.1675" y="618.0304">Read Food Details</text></g><g id="elem_UC5"><ellipse cx="301.4905" cy="139.8981" fill="#F1F1F1" rx="104.9905" ry="23.3981" style="stroke:#181818;stroke-width:0.5;"/><text fill="#000000" font-family="sans-serif" font-size="14" lengthAdjust="spacing" textLength="172" x="215.4905" y="143.6266">Read Food Reviews/Rating</text></g><g id="elem_UC6"><ellipse cx="301.452" cy="1907.0671" fill="#F1F1F1" rx="57.952" ry="15.5671" style="stroke:#181818;stroke-width:0.5;"/><text fill="#000000" font-family="sans-serif" font-size="14" lengthAdjust="spacing" textLength="65" x="265.952" y="1911.5837">Add Users</text></g><g id="elem_UC7"><ellipse cx="301.5408" cy="1837.2082" fill="#F1F1F1" rx="86.5408" ry="19.7082" style="stroke:#181818;stroke-width:0.5;"/><text fill="#000000" font-family="sans-serif" font-size="14" lengthAdjust="spacing" textLength="130" x="236.5408" y="1840.9367">View Reviews/Rating</text></g><g id="elem_UC8"><ellipse cx="301.2698" cy="217.954" fill="#F1F1F1" rx="85.2698" ry="19.454" style="stroke:#181818;stroke-width:0.5;"/><text fill="#000000" font-family="sans-serif" font-size="14" lengthAdjust="spacing" textLength="127" x="237.7698" y="221.6825">Give Rating to Food</text></g><g id="elem_UC9"><ellipse cx="301.4661" cy="292.7932" fill="#F1F1F1" rx="86.9661" ry="19.7932" style="stroke:#181818;stroke-width:0.5;"/><text fill="#000000" font-family="sans-serif" font-size="14" lengthAdjust="spacing" textLength="131" x="235.9661" y="296.5217">Give Review to Food</text></g><g id="elem_UC10"><ellipse cx="301.6395" cy="371.1279" fill="#F1F1F1" rx="103.6395" ry="23.1279" style="stroke:#181818;stroke-width:0.5;"/><text fill="#000000" font-family="sans-serif" font-size="14" lengthAdjust="spacing" textLength="169" x="217.1395" y="374.8564">Cast Vote on Rollout Menu</text></g><g id="elem_UC11"><ellipse cx="301.665" cy="455.233" fill="#F1F1F1" rx="119.165" ry="26.233" style="stroke:#181818;stroke-width:0.5;"/><text fill="#000000" font-family="sans-serif" font-size="14" lengthAdjust="spacing" textLength="203" x="200.165" y="458.9615">Send Notification Read Receipts</text></g><g id="elem_UC12"><ellipse cx="301.5675" cy="1378.2135" fill="#F1F1F1" rx="109.0675" ry="24.2135" style="stroke:#181818;stroke-width:0.5;"/><text fill="#000000" font-family="sans-serif" font-size="14" lengthAdjust="spacing" textLength="181" x="211.0675" y="1381.942">Create and Send Notification</text></g><g id="elem_UC13"><ellipse cx="301.4138" cy="1466.8828" fill="#F1F1F1" rx="137.4138" ry="29.8828" style="stroke:#181818;stroke-width:0.5;"/><text fill="#000000" font-family="sans-serif" font-size="14" lengthAdjust="spacing" textLength="242" x="180.4138" y="1470.6113">Send Finalized Food Menu Notification</text></g><g id="elem_UC14"><ellipse cx="301.5404" cy="1559.9081" fill="#F1F1F1" rx="127.5404" ry="27.9081" style="stroke:#181818;stroke-width:0.5;"/><text fill="#000000" font-family="sans-serif" font-size="14" lengthAdjust="spacing" textLength="221" x="191.0404" y="1563.6366">Manage Notification Read Receipts</text></g><g id="elem_UC15"><ellipse cx="301.3069" cy="1195.1614" fill="#F1F1F1" rx="123.8069" ry="27.1614" style="stroke:#181818;stroke-width:0.5;"/><text fill="#000000" font-family="sans-serif" font-size="14" lengthAdjust="spacing" textLength="213" x="194.8069" y="1198.8899">Notify User on Food Menu Update</text></g><g id="elem_UC16"><ellipse cx="301.2512" cy="691.8502" fill="#F1F1F1" rx="107.2512" ry="23.8502" style="stroke:#181818;stroke-width:0.5;"/><text fill="#000000" font-family="sans-serif" font-size="14" lengthAdjust="spacing" textLength="177" x="212.7512" y="695.5788">Access/Read Review/Rating</text></g><g id="elem_UC17"><ellipse cx="301.4113" cy="936.8823" fill="#F1F1F1" rx="122.4113" ry="26.8823" style="stroke:#181818;stroke-width:0.5;"/><text fill="#000000" font-family="sans-serif" font-size="14" lengthAdjust="spacing" textLength="210" x="196.4113" y="940.6108">Access/Read Rollout Menu Votes</text></g><g id="elem_UC18"><ellipse cx="301.3935" cy="1023.0787" fill="#F1F1F1" rx="105.8935" ry="23.5787" style="stroke:#181818;stroke-width:0.5;"/><text fill="#000000" font-family="sans-serif" font-size="14" lengthAdjust="spacing" textLength="174" x="214.3935" y="1026.8072">Generate Recommendation</text></g><g id="elem_UC19"><ellipse cx="301.3945" cy="1107.1789" fill="#F1F1F1" rx="116.3945" ry="25.6789" style="stroke:#181818;stroke-width:0.5;"/><text fill="#000000" font-family="sans-serif" font-size="14" lengthAdjust="spacing" textLength="197" x="202.8945" y="1110.9074">Send Recommendation to Chef</text></g><g id="elem_UC20"><ellipse cx="301.3903" cy="776.0781" fill="#F1F1F1" rx="110.8903" ry="24.5781" style="stroke:#181818;stroke-width:0.5;"/><text fill="#000000" font-family="sans-serif" font-size="14" lengthAdjust="spacing" textLength="185" x="208.8903" y="779.8066">Get Recommended Food List</text></g><g id="elem_UC21"><ellipse cx="301.5408" cy="855.2082" fill="#F1F1F1" rx="86.5408" ry="19.7082" style="stroke:#181818;stroke-width:0.5;"/><text fill="#000000" font-family="sans-serif" font-size="14" lengthAdjust="spacing" textLength="130" x="236.5408" y="858.9367">Create Rollout Menu</text></g><g id="elem_UC22"><ellipse cx="301.5463" cy="1288.2093" fill="#F1F1F1" rx="144.0463" ry="31.2093" style="stroke:#181818;stroke-width:0.5;"/><text fill="#000000" font-family="sans-serif" font-size="14" lengthAdjust="spacing" textLength="256" x="173.5463" y="1291.9378">Send Rollout Menu to Notification Queue</text></g><g id="elem_UC23"><ellipse cx="301.5948" cy="1648.219" fill="#F1F1F1" rx="114.0948" ry="25.219" style="stroke:#181818;stroke-width:0.5;"/><text fill="#000000" font-family="sans-serif" font-size="14" lengthAdjust="spacing" textLength="192" x="205.5948" y="1651.9475">Get Response for Voting Stats</text></g><g id="elem_UC24"><ellipse cx="301.2889" cy="1745.0578" fill="#F1F1F1" rx="173.2889" ry="37.0578" style="stroke:#181818;stroke-width:0.5;"/><text fill="#000000" font-family="sans-serif" font-size="14" lengthAdjust="spacing" textLength="317" x="142.7889" y="1748.7863">Send Finalized Food to DB and Notification Queue</text></g><!--entity E--><g id="elem_E"><ellipse cx="37" cy="301.5" fill="#F1F1F1" rx="8" ry="8" style="stroke:#181818;stroke-width:0.5;"/><path d="M37,309.5 L37,336.5 M24,317.5 L50,317.5 M37,336.5 L24,351.5 M37,336.5 L50,351.5 " fill="none" style="stroke:#181818;stroke-width:0.5;"/><text fill="#000000" font-family="sans-serif" font-size="14" lengthAdjust="spacing" textLength="62" x="6" y="367.5332">Employee</text></g><!--entity C--><g id="elem_C"><ellipse cx="37" cy="785.5" fill="#F1F1F1" rx="8" ry="8" style="stroke:#181818;stroke-width:0.5;"/><path d="M37,793.5 L37,820.5 M24,801.5 L50,801.5 M37,820.5 L24,835.5 M37,820.5 L50,835.5 " fill="none" style="stroke:#181818;stroke-width:0.5;"/><text fill="#000000" font-family="sans-serif" font-size="14" lengthAdjust="spacing" textLength="30" x="22" y="851.5332">Chef</text></g><!--entity A--><g id="elem_A"><ellipse cx="37" cy="1876.5" fill="#F1F1F1" rx="8" ry="8" style="stroke:#181818;stroke-width:0.5;"/><path d="M37,1884.5 L37,1911.5 M24,1892.5 L50,1892.5 M37,1911.5 L24,1926.5 M37,1911.5 L50,1926.5 " fill="none" style="stroke:#181818;stroke-width:0.5;"/><text fill="#000000" font-family="sans-serif" font-size="14" lengthAdjust="spacing" textLength="39" x="17.5" y="1942.5332">Admin</text></g><!--entity RE--><g id="elem_RE"><ellipse cx="612" cy="784.5" fill="#F1F1F1" rx="8" ry="8" style="stroke:#181818;stroke-width:0.5;"/><path d="M612,792.5 L612,819.5 M599,800.5 L625,800.5 M612,819.5 L599,834.5 M612,819.5 L625,834.5 " fill="none" style="stroke:#181818;stroke-width:0.5;"/><text fill="#000000" font-family="sans-serif" font-size="14" lengthAdjust="spacing" textLength="154" x="535" y="850.5332">RecommendationEngine</text></g><!--entity NQ--><g id="elem_NQ"><ellipse cx="612" cy="1391.5" fill="#F1F1F1" rx="8" ry="8" style="stroke:#181818;stroke-width:0.5;"/><path d="M612,1399.5 L612,1426.5 M599,1407.5 L625,1407.5 M612,1426.5 L599,1441.5 M612,1426.5 L625,1441.5 " fill="none" style="stroke:#181818;stroke-width:0.5;"/><text fill="#000000" font-family="sans-serif" font-size="14" lengthAdjust="spacing" textLength="112" x="556" y="1457.5332">NotificationQueue</text></g><!--link E to UC1--><g id="link_E_UC1"><path d="M42.83,371.09 C49.67,409.28 65.94,466.16 104,498 C131.3,520.84 162.2109,530.9671 196.6109,535.9071 " fill="none" id="E-to-UC1" style="stroke:#181818;stroke-width:1.0;"/><polygon fill="#181818" points="202.55,536.76,194.21,531.5213,197.6008,536.0493,193.0728,539.4401,202.55,536.76" style="stroke:#181818;stroke-width:1.0;"/></g><!--link E to UC8--><g id="link_E_UC8"><path d="M63.09,292.89 C74.02,278.87 87.99,264.25 104,255 C137.96,235.37 174.2748,226.5918 210.8948,222.0918 " fill="none" id="E-to-UC8" style="stroke:#181818;stroke-width:1.0;"/><polygon fill="#181818" points="216.85,221.36,207.4293,218.4876,211.8873,221.9698,208.4051,226.4278,216.85,221.36" style="stroke:#181818;stroke-width:1.0;"/></g><!--link E to UC9--><g id="link_E_UC9"><path d="M68.11,327.53 C106.83,321.77 169.4051,312.4817 222.0451,304.6617 " fill="none" id="E-to-UC9" style="stroke:#181818;stroke-width:1.0;"/><polygon fill="#181818" points="227.98,303.78,218.4899,301.1459,223.0343,304.5147,219.6655,309.0591,227.98,303.78" style="stroke:#181818;stroke-width:1.0;"/></g><!--link E to UC3--><g id="link_E_UC3"><path d="M37.31,292.58 C38.67,240.33 49.38,148.92 104,99 C134.62,71.01 173.4834,61.4908 212.6134,58.8708 " fill="none" id="E-to-UC3" style="stroke:#181818;stroke-width:1.0;"/><polygon fill="#181818" points="218.6,58.47,209.3529,55.0802,213.6112,58.804,209.8873,63.0623,218.6,58.47" style="stroke:#181818;stroke-width:1.0;"/></g><!--link E to UC10--><g id="link_E_UC10"><path d="M68.11,336.47 C103.73,341.77 158.6353,349.9173 209.1253,357.4273 " fill="none" id="E-to-UC10" style="stroke:#181818;stroke-width:1.0;"/><polygon fill="#181818" points="215.06,358.31,206.7464,353.0294,210.1144,357.5744,205.5694,360.9424,215.06,358.31" style="stroke:#181818;stroke-width:1.0;"/></g><!--link E to UC4--><g id="link_E_UC4"><path d="M43.44,371.19 C52.83,433.07 74.02,549.24 104,577 C135.21,605.89 175.5498,615.2572 215.3898,617.5372 " fill="none" id="E-to-UC4" style="stroke:#181818;stroke-width:1.0;"/><polygon fill="#181818" points="221.38,617.88,212.6232,613.3723,216.3882,617.5943,212.1662,621.3592,221.38,617.88" style="stroke:#181818;stroke-width:1.0;"/></g><!--link E to UC5--><g id="link_E_UC5"><path d="M44.72,292.75 C52.75,258.1 69.69,208.87 104,181 C130.17,159.74 158.7132,149.6858 191.4532,144.1758 " fill="none" id="E-to-UC5" style="stroke:#181818;stroke-width:1.0;"/><polygon fill="#181818" points="197.37,143.18,187.831,140.7291,192.4393,144.0098,189.1587,148.6182,197.37,143.18" style="stroke:#181818;stroke-width:1.0;"/></g><!--link E to UC11--><g id="link_E_UC11"><path d="M62.46,371.02 C73.46,385.61 87.67,401.04 104,411 C130.79,427.33 157.0813,436.3715 187.5413,442.8515 " fill="none" id="E-to-UC11" style="stroke:#181818;stroke-width:1.0;"/><polygon fill="#181818" points="193.41,444.1,185.4393,438.3148,188.5194,443.0596,183.7747,446.1397,193.41,444.1" style="stroke:#181818;stroke-width:1.0;"/></g><!--link A to UC2--><g id="link_A_UC2"><path d="M56.74,1918.13 C69.63,1925.34 87.37,1934.4 104,1940 C143.81,1953.41 183.9494,1961.4998 221.4794,1967.2598 " fill="none" id="A-to-UC2" style="stroke:#181818;stroke-width:1.0;"/><polygon fill="#181818" points="227.41,1968.17,219.121,1962.851,222.4679,1967.4115,217.9074,1970.7584,227.41,1968.17" style="stroke:#181818;stroke-width:1.0;"/></g><!--link A to UC6--><g id="link_A_UC6"><path d="M56.88,1907 C95.38,1907 178.3,1907 237.39,1907 " fill="none" id="A-to-UC6" style="stroke:#181818;stroke-width:1.0;"/><polygon fill="#181818" points="243.39,1907,234.39,1903,238.39,1907,234.39,1911,243.39,1907" style="stroke:#181818;stroke-width:1.0;"/></g><!--link A to UC7--><g id="link_A_UC7"><path d="M56.74,1895.87 C69.63,1888.66 87.37,1879.6 104,1874 C142.98,1860.87 182.0516,1852.8939 219.1416,1847.1139 " fill="none" id="A-to-UC7" style="stroke:#181818;stroke-width:1.0;"/><polygon fill="#181818" points="225.07,1846.19,215.5614,1843.6235,220.1296,1846.9599,216.7932,1851.5281,225.07,1846.19" style="stroke:#181818;stroke-width:1.0;"/></g><!--link UC12 to NQ--><g id="link_UC12_NQ"><path d="M393.39,1390.96 C446,1398.47 504.5701,1406.8226 549.6401,1413.2526 " fill="none" id="UC12-to-NQ" style="stroke:#181818;stroke-width:1.0;"/><polygon fill="#181818" points="555.58,1414.1,547.2352,1408.869,550.6301,1413.3938,546.1053,1416.7888,555.58,1414.1" style="stroke:#181818;stroke-width:1.0;"/></g><!--link UC13 to NQ--><g id="link_UC13_NQ"><path d="M416.5,1450.37 C464.04,1443.44 511.1328,1436.5659 549.8028,1430.9259 " fill="none" id="UC13-to-NQ" style="stroke:#181818;stroke-width:1.0;"/><polygon fill="#181818" points="555.74,1430.06,546.2569,1427.4008,550.7923,1430.7816,547.4115,1435.317,555.74,1430.06" style="stroke:#181818;stroke-width:1.0;"/></g><!--link UC14 to NQ--><g id="link_UC14_NQ"><path d="M408.06,1544.56 C438.41,1537.69 470.89,1527.89 499,1514 C525.96,1500.68 547.7315,1483.7983 568.0015,1465.2683 " fill="none" id="UC14-to-NQ" style="stroke:#181818;stroke-width:1.0;"/><polygon fill="#181818" points="572.43,1461.22,563.0884,1464.3402,568.7396,1464.5936,568.4862,1470.2448,572.43,1461.22" style="stroke:#181818;stroke-width:1.0;"/></g><!--link UC15 to NQ--><g id="link_UC15_NQ"><path d="M417.33,1204.82 C445.92,1211.37 475.19,1221.97 499,1239 C548.99,1274.76 578.8865,1334.8514 595.3665,1377.0314 " fill="none" id="UC15-to-NQ" style="stroke:#181818;stroke-width:1.0;"/><polygon fill="#181818" points="597.55,1382.62,598.0005,1372.7814,595.7304,1377.9628,590.549,1375.6928,597.55,1382.62" style="stroke:#181818;stroke-width:1.0;"/></g><!--link UC1 to RE--><g id="link_UC1_RE"><path d="M400.19,540.26 C434.37,545.34 471.13,556.14 499,578 C562.56,627.85 590.5177,716.6553 602.4777,770.0153 " fill="none" id="UC1-to-RE" style="stroke:#181818;stroke-width:1.0;"/><polygon fill="#181818" points="603.79,775.87,605.7248,766.213,602.6964,770.9911,597.9184,767.9627,603.79,775.87" style="stroke:#181818;stroke-width:1.0;"/></g><!--link UC4 to RE--><g id="link_UC4_RE"><path d="M383.32,614.71 C421.04,618.41 465.01,627.84 499,650 C545.55,680.35 575.257,732.0424 592.807,770.4624 " fill="none" id="UC4-to-RE" style="stroke:#181818;stroke-width:1.0;"/><polygon fill="#181818" points="595.3,775.92,595.1989,766.0717,593.2225,771.372,587.9222,769.3956,595.3,775.92" style="stroke:#181818;stroke-width:1.0;"/></g><!--link UC16 to RE--><g id="link_UC16_RE"><path d="M395.47,703.71 C429.06,710.03 466.65,719.62 499,734 C522.79,744.58 541.79,757.0614 561.26,772.1714 " fill="none" id="UC16-to-RE" style="stroke:#181818;stroke-width:1.0;"/><polygon fill="#181818" points="566,775.85,561.3423,767.1721,562.05,772.7845,556.4375,773.4922,566,775.85" style="stroke:#181818;stroke-width:1.0;"/></g><!--link UC17 to RE--><g id="link_UC17_RE"><path d="M402.54,921.69 C434.2,914.86 468.8,905.26 499,892 C521.25,882.23 538.869,871.3773 557.789,857.6873 " fill="none" id="UC17-to-RE" style="stroke:#181818;stroke-width:1.0;"/><polygon fill="#181818" points="562.65,854.17,553.0137,856.2052,558.5992,857.101,557.7034,862.6865,562.65,854.17" style="stroke:#181818;stroke-width:1.0;"/></g><!--link UC18 to RE--><g id="link_UC18_RE"><path d="M403.29,1016.43 C435.95,1010.55 470.96,999.94 499,981 C545.24,949.77 575.0253,897.9022 592.6753,859.4822 " fill="none" id="UC18-to-RE" style="stroke:#181818;stroke-width:1.0;"/><polygon fill="#181818" points="595.18,854.03,587.7881,860.5385,593.0927,858.5735,595.0577,863.8781,595.18,854.03" style="stroke:#181818;stroke-width:1.0;"/></g><!--link UC19 to RE--><g id="link_UC19_RE"><path d="M414.48,1100.77 C444.46,1094.5 475.14,1083.37 499,1064 C565.06,1010.38 592.3711,915.423 603.4911,859.933 " fill="none" id="UC19-to-RE" style="stroke:#181818;stroke-width:1.0;"/><polygon fill="#181818" points="604.67,854.05,598.9796,862.0886,603.6876,858.9525,606.8236,863.6605,604.67,854.05" style="stroke:#181818;stroke-width:1.0;"/></g><!--link C to UC1--><g id="link_C_UC1"><path d="M37.12,776.78 C38.19,723.72 48.5,629.76 104,578 C130.35,553.42 161.5629,542.9751 196.4929,538.3051 " fill="none" id="C-to-UC1" style="stroke:#181818;stroke-width:1.0;"/><polygon fill="#181818" points="202.44,537.51,192.9893,534.7379,197.4841,538.1726,194.0494,542.6674,202.44,537.51" style="stroke:#181818;stroke-width:1.0;"/></g><!--link C to UC4--><g id="link_C_UC4"><path d="M42.69,776.75 C49.44,738.44 65.63,681.46 104,650 C136.32,623.5 175.7639,614.3779 214.8039,611.7179 " fill="none" id="C-to-UC4" style="stroke:#181818;stroke-width:1.0;"/><polygon fill="#181818" points="220.79,611.31,211.5389,607.9311,215.8016,611.6499,212.0827,615.9125,220.79,611.31" style="stroke:#181818;stroke-width:1.0;"/></g><!--link C to UC16--><g id="link_C_UC16"><path d="M52.22,790.18 C63.76,771.68 81.75,747.7 104,734 C132.67,716.35 161.7399,707.1306 194.1999,701.1306 " fill="none" id="C-to-UC16" style="stroke:#181818;stroke-width:1.0;"/><polygon fill="#181818" points="200.1,700.04,190.5229,697.7425,195.1833,700.9488,191.977,705.6092,200.1,700.04" style="stroke:#181818;stroke-width:1.0;"/></g><!--link C to UC20--><g id="link_C_UC20"><path d="M52.11,813.85 C81.5,809.37 145.4584,799.6235 203.6284,790.7635 " fill="none" id="C-to-UC20" style="stroke:#181818;stroke-width:1.0;"/><polygon fill="#181818" points="209.56,789.86,200.0603,787.2608,204.617,790.6129,201.2649,795.1696,209.56,789.86" style="stroke:#181818;stroke-width:1.0;"/></g><!--link C to UC21--><g id="link_C_UC21"><path d="M52.11,818.1 C84.86,822.96 161.9352,834.4078 223.0152,843.4878 " fill="none" id="C-to-UC21" style="stroke:#181818;stroke-width:1.0;"/><polygon fill="#181818" points="228.95,844.37,220.636,839.0901,224.0043,843.6348,219.4597,847.0031,228.95,844.37" style="stroke:#181818;stroke-width:1.0;"/></g><!--link C to UC22--><g id="link_C_UC22"><path d="M38.75,855.03 C41.37,948.81 52.97,1183.18 104,1239 C120.72,1257.29 137.4329,1267.3782 161.1329,1275.0682 " fill="none" id="C-to-UC22" style="stroke:#181818;stroke-width:1.0;"/><polygon fill="#181818" points="166.84,1276.92,159.5139,1270.3376,162.0841,1275.3768,157.0448,1277.947,166.84,1276.92" style="stroke:#181818;stroke-width:1.0;"/></g><!--link C to UC23--><g id="link_C_UC23"><path d="M38.59,855.05 C41.25,1006.31 54.18,1548.13 104,1605 C125.06,1629.04 150.2656,1640.2591 181.5556,1646.2091 " fill="none" id="C-to-UC23" style="stroke:#181818;stroke-width:1.0;"/><polygon fill="#181818" points="187.45,1647.33,179.3557,1641.7191,182.538,1646.396,177.8612,1649.5783,187.45,1647.33" style="stroke:#181818;stroke-width:1.0;"/></g><!--link C to UC24--><g id="link_C_UC24"><path d="M38.36,855.24 C40.17,1016.76 50.52,1624.76 104,1690 C117.03,1705.89 128.7513,1714.9764 147.5713,1723.2864 " fill="none" id="C-to-UC24" style="stroke:#181818;stroke-width:1.0;"/><polygon fill="#181818" points="153.06,1725.71,146.4426,1718.4155,148.486,1723.6904,143.2112,1725.7338,153.06,1725.71" style="stroke:#181818;stroke-width:1.0;"/></g><!--SRC=[ZLHDR-CW4BtpAr3lrSQEuoINbL8txMLRgQxIEx8dBf83aS6jkglzxpiGatgeixlS7hpvuBs15lQMMyqxsRnQNiiEAYkrOgAokkFRmx7L7m1S6BuTzefNs3jS37XJ7wHo6vjXeuHA7mwWQk4oRLKZbKzGXWoFsigzhFpnKm-zFtryOimL5wffWTzfNJ-0wlalnd7r1YfXW5zjgWgC-LQ2g3s7EzALYzyL2QNkZjW0V66bb8NDWdm3qjF0dCVCKFCMh92j6MZP9Le9RnBUiLbCgfg1lOZkKzTyPw0BoN9w_889flCiAV7UtU54S6ww-WDnDKNq6IFYcX8BOIn_qQYWLhpKRQjxIzIUKVup6avKv5u9h-_HXlibaKb51yuaWR5V4eIGTABGdLIYbJzXD0MJiP673qA91lwZpSXK7_3XdN9oVDOy3Lc8MbmUrfFarCCa_mj_fBYtuTnQx3mew9o6zDa5zcf2FCfqO-3UT8XOn_djPq3G-uSqDhodsQIZ4nEJ9bEzZE-9dH1h_ESGejEflinHAqHx_5LG93VzprQSRKpd_nuTh7bxumVmSkcC_MPiowzh_Qwkl_klPenM1Aq9cjEu6O4PGGjAJHZRZ71AK4xGaZ7tJiux-9UwsOzm5k756BkDCyQV6fkZCCaZl8pmAiBhCMO5KQyW8f2pd42SBW9fACu4WNCAC_O7]--></g></svg>