<?xml version="1.0" encoding="us-ascii" standalone="no"?><svg xmlns="http://www.w3.org/2000/svg" xmlns:xlink="http://www.w3.org/1999/xlink" contentStyleType="text/css" height="595px" preserveAspectRatio="none" style="width:738px;height:595px;background:#FFFFFF;" version="1.1" viewBox="0 0 738 595" width="738px" zoomAndPan="magnify"><defs/><g><!--class Users--><g id="elem_Users"><rect codeLine="1" fill="#F1F1F1" height="136.0469" id="Users" rx="2.5" ry="2.5" style="stroke:#181818;stroke-width:0.5;" width="156" x="209" y="221"/><ellipse cx="264.75" cy="237" fill="#ADD1B2" rx="11" ry="11" style="stroke:#181818;stroke-width:1.0;"/><path d="M263.6094,237.7969 L263.6094,240.2969 L267.9375,240.2969 L267.9375,239.375 Q267.9375,238.7656 268.1719,238.5 Q268.4219,238.2344 268.7969,238.2344 Q269.1719,238.2344 269.4063,238.5 Q269.6406,238.7656 269.6406,239.375 L269.6406,242 L261.6406,242 Q261.0156,242 260.75,241.7656 Q260.5,241.5313 260.5,241.1406 Q260.5,240.7656 260.7656,240.5313 Q261.0313,240.2969 261.6406,240.2969 L261.9063,240.2969 L261.9063,233.6406 L261.6406,233.6406 Q261.0156,233.6406 260.75,233.4063 Q260.5,233.1719 260.5,232.7813 Q260.5,232.4063 260.75,232.1719 Q261.0156,231.9375 261.6406,231.9375 L269.2656,231.9375 L269.2656,234.5313 Q269.2656,235.1406 269.0313,235.4063 Q268.8125,235.6563 268.4219,235.6563 Q268.0469,235.6563 267.8125,235.4063 Q267.5781,235.1406 267.5781,234.5313 L267.5781,233.6406 L263.6094,233.6406 L263.6094,236.0938 L265.0938,236.0938 Q265.0938,235.4375 265.2188,235.25 Q265.4844,234.8438 265.9531,234.8438 Q266.3281,234.8438 266.5625,235.1094 Q266.7969,235.3594 266.7969,235.9688 L266.7969,237.9375 Q266.7969,238.4844 266.6719,238.6719 Q266.4063,239.0625 265.9531,239.0625 Q265.4844,239.0625 265.2188,238.6563 Q265.0938,238.4688 265.0938,237.7969 L263.6094,237.7969 Z " fill="#000000"/><text fill="#000000" font-family="sans-serif" font-size="14" lengthAdjust="spacing" textLength="36" x="285.25" y="242.7285">Users</text><line style="stroke:#181818;stroke-width:0.5;" x1="210" x2="364" y1="253" y2="253"/><ellipse cx="220" cy="267.3047" fill="none" rx="3" ry="3" style="stroke:#038048;stroke-width:1.0;"/><text fill="#000000" font-family="sans-serif" font-size="14" lengthAdjust="spacing" textLength="80" x="229" y="271.5332">user_id : INT</text><line style="stroke:#181818;stroke-width:1.0;" x1="210" x2="364" y1="278.6094" y2="278.6094"/><text fill="#000000" font-family="sans-serif" font-size="14" lengthAdjust="spacing" textLength="113" x="215" y="297.1426">employee_id : INT</text><text fill="#000000" font-family="sans-serif" font-size="14" lengthAdjust="spacing" textLength="113" x="215" y="314.752">user_type : ENUM</text><text fill="#000000" font-family="sans-serif" font-size="14" lengthAdjust="spacing" textLength="144" x="215" y="332.3613">first_name : VARCHAR</text><text fill="#000000" font-family="sans-serif" font-size="14" lengthAdjust="spacing" textLength="143" x="215" y="349.9707">last_name : VARCHAR</text></g><!--class Food_Items--><g id="elem_Food_Items"><rect codeLine="10" fill="#F1F1F1" height="136.0469" id="Food_Items" rx="2.5" ry="2.5" style="stroke:#181818;stroke-width:0.5;" width="161" x="413.5" y="7"/><ellipse cx="453.25" cy="23" fill="#ADD1B2" rx="11" ry="11" style="stroke:#181818;stroke-width:1.0;"/><path d="M452.1094,23.7969 L452.1094,26.2969 L456.4375,26.2969 L456.4375,25.375 Q456.4375,24.7656 456.6719,24.5 Q456.9219,24.2344 457.2969,24.2344 Q457.6719,24.2344 457.9063,24.5 Q458.1406,24.7656 458.1406,25.375 L458.1406,28 L450.1406,28 Q449.5156,28 449.25,27.7656 Q449,27.5313 449,27.1406 Q449,26.7656 449.2656,26.5313 Q449.5313,26.2969 450.1406,26.2969 L450.4063,26.2969 L450.4063,19.6406 L450.1406,19.6406 Q449.5156,19.6406 449.25,19.4063 Q449,19.1719 449,18.7813 Q449,18.4063 449.25,18.1719 Q449.5156,17.9375 450.1406,17.9375 L457.7656,17.9375 L457.7656,20.5313 Q457.7656,21.1406 457.5313,21.4063 Q457.3125,21.6563 456.9219,21.6563 Q456.5469,21.6563 456.3125,21.4063 Q456.0781,21.1406 456.0781,20.5313 L456.0781,19.6406 L452.1094,19.6406 L452.1094,22.0938 L453.5938,22.0938 Q453.5938,21.4375 453.7188,21.25 Q453.9844,20.8438 454.4531,20.8438 Q454.8281,20.8438 455.0625,21.1094 Q455.2969,21.3594 455.2969,21.9688 L455.2969,23.9375 Q455.2969,24.4844 455.1719,24.6719 Q454.9063,25.0625 454.4531,25.0625 Q453.9844,25.0625 453.7188,24.6563 Q453.5938,24.4688 453.5938,23.7969 L452.1094,23.7969 Z " fill="#000000"/><text fill="#000000" font-family="sans-serif" font-size="14" lengthAdjust="spacing" textLength="74" x="472.75" y="28.7285">Food_Items</text><line style="stroke:#181818;stroke-width:0.5;" x1="414.5" x2="573.5" y1="39" y2="39"/><ellipse cx="424.5" cy="53.3047" fill="none" rx="3" ry="3" style="stroke:#038048;stroke-width:1.0;"/><text fill="#000000" font-family="sans-serif" font-size="14" lengthAdjust="spacing" textLength="80" x="433.5" y="57.5332">food_id : INT</text><line style="stroke:#181818;stroke-width:1.0;" x1="414.5" x2="573.5" y1="64.6094" y2="64.6094"/><text fill="#000000" font-family="sans-serif" font-size="14" lengthAdjust="spacing" textLength="149" x="419.5" y="83.1426">food_name : VARCHAR</text><text fill="#000000" font-family="sans-serif" font-size="14" lengthAdjust="spacing" textLength="103" x="419.5" y="100.752">price : DECIMAL</text><text fill="#000000" font-family="sans-serif" font-size="14" lengthAdjust="spacing" textLength="125" x="419.5" y="118.3613">is_available : BOOL</text><text fill="#000000" font-family="sans-serif" font-size="14" lengthAdjust="spacing" textLength="116" x="419.5" y="135.9707">description : TEXT</text></g><!--class Food_Feedback--><g id="elem_Food_Feedback"><rect codeLine="19" fill="#F1F1F1" height="153.6563" id="Food_Feedback" rx="2.5" ry="2.5" style="stroke:#181818;stroke-width:0.5;" width="136" x="7" y="435"/><ellipse cx="22" cy="451" fill="#ADD1B2" rx="11" ry="11" style="stroke:#181818;stroke-width:1.0;"/><path d="M20.8594,451.7969 L20.8594,454.2969 L25.1875,454.2969 L25.1875,453.375 Q25.1875,452.7656 25.4219,452.5 Q25.6719,452.2344 26.0469,452.2344 Q26.4219,452.2344 26.6563,452.5 Q26.8906,452.7656 26.8906,453.375 L26.8906,456 L18.8906,456 Q18.2656,456 18,455.7656 Q17.75,455.5313 17.75,455.1406 Q17.75,454.7656 18.0156,454.5313 Q18.2813,454.2969 18.8906,454.2969 L19.1563,454.2969 L19.1563,447.6406 L18.8906,447.6406 Q18.2656,447.6406 18,447.4063 Q17.75,447.1719 17.75,446.7813 Q17.75,446.4063 18,446.1719 Q18.2656,445.9375 18.8906,445.9375 L26.5156,445.9375 L26.5156,448.5313 Q26.5156,449.1406 26.2813,449.4063 Q26.0625,449.6563 25.6719,449.6563 Q25.2969,449.6563 25.0625,449.4063 Q24.8281,449.1406 24.8281,448.5313 L24.8281,447.6406 L20.8594,447.6406 L20.8594,450.0938 L22.3438,450.0938 Q22.3438,449.4375 22.4688,449.25 Q22.7344,448.8438 23.2031,448.8438 Q23.5781,448.8438 23.8125,449.1094 Q24.0469,449.3594 24.0469,449.9688 L24.0469,451.9375 Q24.0469,452.4844 23.9219,452.6719 Q23.6563,453.0625 23.2031,453.0625 Q22.7344,453.0625 22.4688,452.6563 Q22.3438,452.4688 22.3438,451.7969 L20.8594,451.7969 Z " fill="#000000"/><text fill="#000000" font-family="sans-serif" font-size="14" lengthAdjust="spacing" textLength="104" x="36" y="456.7285">Food_Feedback</text><line style="stroke:#181818;stroke-width:0.5;" x1="8" x2="142" y1="467" y2="467"/><ellipse cx="18" cy="481.3047" fill="none" rx="3" ry="3" style="stroke:#038048;stroke-width:1.0;"/><text fill="#000000" font-family="sans-serif" font-size="14" lengthAdjust="spacing" textLength="110" x="27" y="485.5332">feedback_id : INT</text><line style="stroke:#181818;stroke-width:1.0;" x1="8" x2="142" y1="492.6094" y2="492.6094"/><text fill="#000000" font-family="sans-serif" font-size="14" lengthAdjust="spacing" textLength="80" x="13" y="511.1426">food_id : INT</text><text fill="#000000" font-family="sans-serif" font-size="14" lengthAdjust="spacing" textLength="80" x="13" y="528.752">user_id : INT</text><text fill="#000000" font-family="sans-serif" font-size="14" lengthAdjust="spacing" textLength="108" x="13" y="546.3613">taste_rating : INT</text><text fill="#000000" font-family="sans-serif" font-size="14" lengthAdjust="spacing" textLength="118" x="13" y="563.9707">quality_rating : INT</text><text fill="#000000" font-family="sans-serif" font-size="14" lengthAdjust="spacing" textLength="87" x="13" y="581.5801">review : TEXT</text></g><!--class Daily_Rollout--><g id="elem_Daily_Rollout"><rect codeLine="29" fill="#F1F1F1" height="118.4375" id="Daily_Rollout" rx="2.5" ry="2.5" style="stroke:#181818;stroke-width:0.5;" width="127" x="604.5" y="230"/><ellipse cx="624.9" cy="246" fill="#ADD1B2" rx="11" ry="11" style="stroke:#181818;stroke-width:1.0;"/><path d="M623.7594,246.7969 L623.7594,249.2969 L628.0875,249.2969 L628.0875,248.375 Q628.0875,247.7656 628.3219,247.5 Q628.5719,247.2344 628.9469,247.2344 Q629.3219,247.2344 629.5563,247.5 Q629.7906,247.7656 629.7906,248.375 L629.7906,251 L621.7906,251 Q621.1656,251 620.9,250.7656 Q620.65,250.5313 620.65,250.1406 Q620.65,249.7656 620.9156,249.5313 Q621.1813,249.2969 621.7906,249.2969 L622.0563,249.2969 L622.0563,242.6406 L621.7906,242.6406 Q621.1656,242.6406 620.9,242.4063 Q620.65,242.1719 620.65,241.7813 Q620.65,241.4063 620.9,241.1719 Q621.1656,240.9375 621.7906,240.9375 L629.4156,240.9375 L629.4156,243.5313 Q629.4156,244.1406 629.1813,244.4063 Q628.9625,244.6563 628.5719,244.6563 Q628.1969,244.6563 627.9625,244.4063 Q627.7281,244.1406 627.7281,243.5313 L627.7281,242.6406 L623.7594,242.6406 L623.7594,245.0938 L625.2438,245.0938 Q625.2438,244.4375 625.3688,244.25 Q625.6344,243.8438 626.1031,243.8438 Q626.4781,243.8438 626.7125,244.1094 Q626.9469,244.3594 626.9469,244.9688 L626.9469,246.9375 Q626.9469,247.4844 626.8219,247.6719 Q626.5563,248.0625 626.1031,248.0625 Q625.6344,248.0625 625.3688,247.6563 Q625.2438,247.4688 625.2438,246.7969 L623.7594,246.7969 Z " fill="#000000"/><text fill="#000000" font-family="sans-serif" font-size="14" lengthAdjust="spacing" textLength="83" x="640.1" y="251.7285">Daily_Rollout</text><line style="stroke:#181818;stroke-width:0.5;" x1="605.5" x2="730.5" y1="262" y2="262"/><ellipse cx="615.5" cy="276.3047" fill="none" rx="3" ry="3" style="stroke:#038048;stroke-width:1.0;"/><text fill="#000000" font-family="sans-serif" font-size="14" lengthAdjust="spacing" textLength="91" x="624.5" y="280.5332">rollout_id : INT</text><line style="stroke:#181818;stroke-width:1.0;" x1="605.5" x2="730.5" y1="287.6094" y2="287.6094"/><text fill="#000000" font-family="sans-serif" font-size="14" lengthAdjust="spacing" textLength="77" x="610.5" y="306.1426">date : DATE</text><text fill="#000000" font-family="sans-serif" font-size="14" lengthAdjust="spacing" textLength="115" x="610.5" y="323.752">meal_type : ENUM</text><text fill="#000000" font-family="sans-serif" font-size="14" lengthAdjust="spacing" textLength="80" x="610.5" y="341.3613">food_id : INT</text></g><!--class Rollout_Voting--><g id="elem_Rollout_Voting"><rect codeLine="37" fill="#F1F1F1" height="100.8281" id="Rollout_Voting" rx="2.5" ry="2.5" style="stroke:#181818;stroke-width:0.5;" width="124" x="606" y="461.5"/><ellipse cx="621" cy="477.5" fill="#ADD1B2" rx="11" ry="11" style="stroke:#181818;stroke-width:1.0;"/><path d="M619.8594,478.2969 L619.8594,480.7969 L624.1875,480.7969 L624.1875,479.875 Q624.1875,479.2656 624.4219,479 Q624.6719,478.7344 625.0469,478.7344 Q625.4219,478.7344 625.6563,479 Q625.8906,479.2656 625.8906,479.875 L625.8906,482.5 L617.8906,482.5 Q617.2656,482.5 617,482.2656 Q616.75,482.0313 616.75,481.6406 Q616.75,481.2656 617.0156,481.0313 Q617.2813,480.7969 617.8906,480.7969 L618.1563,480.7969 L618.1563,474.1406 L617.8906,474.1406 Q617.2656,474.1406 617,473.9063 Q616.75,473.6719 616.75,473.2813 Q616.75,472.9063 617,472.6719 Q617.2656,472.4375 617.8906,472.4375 L625.5156,472.4375 L625.5156,475.0313 Q625.5156,475.6406 625.2813,475.9063 Q625.0625,476.1563 624.6719,476.1563 Q624.2969,476.1563 624.0625,475.9063 Q623.8281,475.6406 623.8281,475.0313 L623.8281,474.1406 L619.8594,474.1406 L619.8594,476.5938 L621.3438,476.5938 Q621.3438,475.9375 621.4688,475.75 Q621.7344,475.3438 622.2031,475.3438 Q622.5781,475.3438 622.8125,475.6094 Q623.0469,475.8594 623.0469,476.4688 L623.0469,478.4375 Q623.0469,478.9844 622.9219,479.1719 Q622.6563,479.5625 622.2031,479.5625 Q621.7344,479.5625 621.4688,479.1563 Q621.3438,478.9688 621.3438,478.2969 L619.8594,478.2969 Z " fill="#000000"/><text fill="#000000" font-family="sans-serif" font-size="14" lengthAdjust="spacing" textLength="92" x="635" y="483.2285">Rollout_Voting</text><line style="stroke:#181818;stroke-width:0.5;" x1="607" x2="729" y1="493.5" y2="493.5"/><ellipse cx="617" cy="507.8047" fill="none" rx="3" ry="3" style="stroke:#038048;stroke-width:1.0;"/><text fill="#000000" font-family="sans-serif" font-size="14" lengthAdjust="spacing" textLength="90" x="626" y="512.0332">voting_id : INT</text><line style="stroke:#181818;stroke-width:1.0;" x1="607" x2="729" y1="519.1094" y2="519.1094"/><text fill="#000000" font-family="sans-serif" font-size="14" lengthAdjust="spacing" textLength="91" x="612" y="537.6426">rollout_id : INT</text><text fill="#000000" font-family="sans-serif" font-size="14" lengthAdjust="spacing" textLength="80" x="612" y="555.252">user_id : INT</text></g><!--class Daily_Menu--><g id="elem_Daily_Menu"><rect codeLine="44" fill="#F1F1F1" height="100.8281" id="Daily_Menu" rx="2.5" ry="2.5" style="stroke:#181818;stroke-width:0.5;" width="150" x="419" y="238.5"/><ellipse cx="453.8" cy="254.5" fill="#ADD1B2" rx="11" ry="11" style="stroke:#181818;stroke-width:1.0;"/><path d="M452.6594,255.2969 L452.6594,257.7969 L456.9875,257.7969 L456.9875,256.875 Q456.9875,256.2656 457.2219,256 Q457.4719,255.7344 457.8469,255.7344 Q458.2219,255.7344 458.4563,256 Q458.6906,256.2656 458.6906,256.875 L458.6906,259.5 L450.6906,259.5 Q450.0656,259.5 449.8,259.2656 Q449.55,259.0313 449.55,258.6406 Q449.55,258.2656 449.8156,258.0313 Q450.0813,257.7969 450.6906,257.7969 L450.9563,257.7969 L450.9563,251.1406 L450.6906,251.1406 Q450.0656,251.1406 449.8,250.9063 Q449.55,250.6719 449.55,250.2813 Q449.55,249.9063 449.8,249.6719 Q450.0656,249.4375 450.6906,249.4375 L458.3156,249.4375 L458.3156,252.0313 Q458.3156,252.6406 458.0813,252.9063 Q457.8625,253.1563 457.4719,253.1563 Q457.0969,253.1563 456.8625,252.9063 Q456.6281,252.6406 456.6281,252.0313 L456.6281,251.1406 L452.6594,251.1406 L452.6594,253.5938 L454.1438,253.5938 Q454.1438,252.9375 454.2688,252.75 Q454.5344,252.3438 455.0031,252.3438 Q455.3781,252.3438 455.6125,252.6094 Q455.8469,252.8594 455.8469,253.4688 L455.8469,255.4375 Q455.8469,255.9844 455.7219,256.1719 Q455.4563,256.5625 455.0031,256.5625 Q454.5344,256.5625 454.2688,256.1563 Q454.1438,255.9688 454.1438,255.2969 L452.6594,255.2969 Z " fill="#000000"/><text fill="#000000" font-family="sans-serif" font-size="14" lengthAdjust="spacing" textLength="74" x="472.2" y="260.2285">Daily_Menu</text><line style="stroke:#181818;stroke-width:0.5;" x1="420" x2="568" y1="270.5" y2="270.5"/><ellipse cx="430" cy="284.8047" fill="none" rx="3" ry="3" style="stroke:#038048;stroke-width:1.0;"/><text fill="#000000" font-family="sans-serif" font-size="14" lengthAdjust="spacing" textLength="124" x="439" y="289.0332">daily_menu_id : INT</text><line style="stroke:#181818;stroke-width:1.0;" x1="420" x2="568" y1="296.1094" y2="296.1094"/><text fill="#000000" font-family="sans-serif" font-size="14" lengthAdjust="spacing" textLength="80" x="425" y="314.6426">food_id : INT</text><text fill="#000000" font-family="sans-serif" font-size="14" lengthAdjust="spacing" textLength="77" x="425" y="332.252">date : DATE</text></g><!--class Daily_Menu_Response--><g id="elem_Daily_Menu_Response"><rect codeLine="51" fill="#F1F1F1" height="100.8281" id="Daily_Menu_Response" rx="2.5" ry="2.5" style="stroke:#181818;stroke-width:0.5;" width="178" x="393" y="461.5"/><ellipse cx="408" cy="477.5" fill="#ADD1B2" rx="11" ry="11" style="stroke:#181818;stroke-width:1.0;"/><path d="M406.8594,478.2969 L406.8594,480.7969 L411.1875,480.7969 L411.1875,479.875 Q411.1875,479.2656 411.4219,479 Q411.6719,478.7344 412.0469,478.7344 Q412.4219,478.7344 412.6563,479 Q412.8906,479.2656 412.8906,479.875 L412.8906,482.5 L404.8906,482.5 Q404.2656,482.5 404,482.2656 Q403.75,482.0313 403.75,481.6406 Q403.75,481.2656 404.0156,481.0313 Q404.2813,480.7969 404.8906,480.7969 L405.1563,480.7969 L405.1563,474.1406 L404.8906,474.1406 Q404.2656,474.1406 404,473.9063 Q403.75,473.6719 403.75,473.2813 Q403.75,472.9063 404,472.6719 Q404.2656,472.4375 404.8906,472.4375 L412.5156,472.4375 L412.5156,475.0313 Q412.5156,475.6406 412.2813,475.9063 Q412.0625,476.1563 411.6719,476.1563 Q411.2969,476.1563 411.0625,475.9063 Q410.8281,475.6406 410.8281,475.0313 L410.8281,474.1406 L406.8594,474.1406 L406.8594,476.5938 L408.3438,476.5938 Q408.3438,475.9375 408.4688,475.75 Q408.7344,475.3438 409.2031,475.3438 Q409.5781,475.3438 409.8125,475.6094 Q410.0469,475.8594 410.0469,476.4688 L410.0469,478.4375 Q410.0469,478.9844 409.9219,479.1719 Q409.6563,479.5625 409.2031,479.5625 Q408.7344,479.5625 408.4688,479.1563 Q408.3438,478.9688 408.3438,478.2969 L406.8594,478.2969 Z " fill="#000000"/><text fill="#000000" font-family="sans-serif" font-size="14" lengthAdjust="spacing" textLength="146" x="422" y="483.2285">Daily_Menu_Response</text><line style="stroke:#181818;stroke-width:0.5;" x1="394" x2="570" y1="493.5" y2="493.5"/><ellipse cx="404" cy="507.8047" fill="none" rx="3" ry="3" style="stroke:#038048;stroke-width:1.0;"/><text fill="#000000" font-family="sans-serif" font-size="14" lengthAdjust="spacing" textLength="124" x="413" y="512.0332">daily_menu_id : INT</text><ellipse cx="404" cy="525.4141" fill="none" rx="3" ry="3" style="stroke:#038048;stroke-width:1.0;"/><text fill="#000000" font-family="sans-serif" font-size="14" lengthAdjust="spacing" textLength="80" x="413" y="529.6426">user_id : INT</text><line style="stroke:#181818;stroke-width:1.0;" x1="394" x2="570" y1="536.7188" y2="536.7188"/><text fill="#000000" font-family="sans-serif" font-size="14" lengthAdjust="spacing" textLength="109" x="399" y="555.252">response : ENUM</text></g><!--class User_Notification--><g id="elem_User_Notification"><rect codeLine="58" fill="#F1F1F1" height="118.4375" id="User_Notification" rx="2.5" ry="2.5" style="stroke:#181818;stroke-width:0.5;" width="179" x="178.5" y="453"/><ellipse cx="211.95" cy="469" fill="#ADD1B2" rx="11" ry="11" style="stroke:#181818;stroke-width:1.0;"/><path d="M210.8094,469.7969 L210.8094,472.2969 L215.1375,472.2969 L215.1375,471.375 Q215.1375,470.7656 215.3719,470.5 Q215.6219,470.2344 215.9969,470.2344 Q216.3719,470.2344 216.6063,470.5 Q216.8406,470.7656 216.8406,471.375 L216.8406,474 L208.8406,474 Q208.2156,474 207.95,473.7656 Q207.7,473.5313 207.7,473.1406 Q207.7,472.7656 207.9656,472.5313 Q208.2313,472.2969 208.8406,472.2969 L209.1063,472.2969 L209.1063,465.6406 L208.8406,465.6406 Q208.2156,465.6406 207.95,465.4063 Q207.7,465.1719 207.7,464.7813 Q207.7,464.4063 207.95,464.1719 Q208.2156,463.9375 208.8406,463.9375 L216.4656,463.9375 L216.4656,466.5313 Q216.4656,467.1406 216.2313,467.4063 Q216.0125,467.6563 215.6219,467.6563 Q215.2469,467.6563 215.0125,467.4063 Q214.7781,467.1406 214.7781,466.5313 L214.7781,465.6406 L210.8094,465.6406 L210.8094,468.0938 L212.2938,468.0938 Q212.2938,467.4375 212.4188,467.25 Q212.6844,466.8438 213.1531,466.8438 Q213.5281,466.8438 213.7625,467.1094 Q213.9969,467.3594 213.9969,467.9688 L213.9969,469.9375 Q213.9969,470.4844 213.8719,470.6719 Q213.6063,471.0625 213.1531,471.0625 Q212.6844,471.0625 212.4188,470.6563 Q212.2938,470.4688 212.2938,469.7969 L210.8094,469.7969 Z " fill="#000000"/><text fill="#000000" font-family="sans-serif" font-size="14" lengthAdjust="spacing" textLength="106" x="230.05" y="474.7285">User_Notification</text><line style="stroke:#181818;stroke-width:0.5;" x1="179.5" x2="356.5" y1="485" y2="485"/><ellipse cx="189.5" cy="499.3047" fill="none" rx="3" ry="3" style="stroke:#038048;stroke-width:1.0;"/><text fill="#000000" font-family="sans-serif" font-size="14" lengthAdjust="spacing" textLength="120" x="198.5" y="503.5332">notification_id : INT</text><ellipse cx="189.5" cy="516.9141" fill="none" rx="3" ry="3" style="stroke:#038048;stroke-width:1.0;"/><text fill="#000000" font-family="sans-serif" font-size="14" lengthAdjust="spacing" textLength="104" x="198.5" y="521.1426">message : TEXT</text><ellipse cx="189.5" cy="534.5234" fill="none" rx="3" ry="3" style="stroke:#038048;stroke-width:1.0;"/><text fill="#000000" font-family="sans-serif" font-size="14" lengthAdjust="spacing" textLength="153" x="198.5" y="538.752">notification_type : ENUM</text><ellipse cx="189.5" cy="552.1328" fill="none" rx="3" ry="3" style="stroke:#038048;stroke-width:1.0;"/><text fill="#000000" font-family="sans-serif" font-size="14" lengthAdjust="spacing" textLength="80" x="198.5" y="556.3613">user_id : INT</text><line style="stroke:#181818;stroke-width:0.5;" x1="179.5" x2="356.5" y1="563.4375" y2="563.4375"/></g><!--link Users to Food_Feedback--><g id="link_Users_Food_Feedback"><path codeLine="65" d="M216.9913,362.9826 C191.8913,389.1426 181.1107,400.3803 155.6707,426.9003 " fill="none" id="Users-Food_Feedback" style="stroke:#181818;stroke-width:1.0;"/><line style="stroke:#181818;stroke-width:1.0;" x1="216.8744" x2="222.647" y1="357.327" y2="362.8656"/><line style="stroke:#181818;stroke-width:1.0;" x1="214.7973" x2="220.5699" y1="359.4917" y2="365.0304"/><line style="stroke:#181818;stroke-width:1.0;" x1="216.9913" x2="222.53" y1="362.9826" y2="357.21"/><line style="stroke:#181818;stroke-width:1.0;" x1="148.7481" x2="147.5399" y1="434.1168" y2="444.0436"/><line style="stroke:#181818;stroke-width:1.0;" x1="148.7481" x2="138.8801" y1="434.1168" y2="435.7364"/><line style="stroke:#181818;stroke-width:1.0;" x1="148.7481" x2="143.21" y1="434.1168" y2="439.89"/><ellipse cx="152.9016" cy="429.7869" fill="none" rx="4" ry="4" style="stroke:#181818;stroke-width:1.0;"/><text fill="#000000" font-family="sans-serif" font-size="13" lengthAdjust="spacing" textLength="42" x="195" y="401.4951">user_id</text></g><!--link Food_Items to Food_Feedback--><g id="link_Food_Items_Food_Feedback"><path codeLine="66" d="M405.3597,90.1889 C326.2897,106.7389 215.95,141.99 148,221 C96.8,280.54 81.9293,352.9977 77.2593,417.0277 " fill="none" id="Food_Items-Food_Feedback" style="stroke:#181818;stroke-width:1.0;"/><line style="stroke:#181818;stroke-width:1.0;" x1="408.4554" x2="410.0943" y1="85.4543" y2="93.2846"/><line style="stroke:#181818;stroke-width:1.0;" x1="405.519" x2="407.1579" y1="86.0689" y2="93.8992"/><line style="stroke:#181818;stroke-width:1.0;" x1="405.3597" x2="413.19" y1="90.1889" y2="88.55"/><line style="stroke:#181818;stroke-width:1.0;" x1="76.5319" x2="81.9341" y1="427.0012" y2="435.4164"/><line style="stroke:#181818;stroke-width:1.0;" x1="76.5319" x2="69.9659" y1="427.0012" y2="434.5436"/><line style="stroke:#181818;stroke-width:1.0;" x1="76.5319" x2="75.95" y1="427.0012" y2="434.98"/><ellipse cx="76.9684" cy="421.0171" fill="none" rx="4" ry="4" style="stroke:#181818;stroke-width:1.0;"/><text fill="#000000" font-family="sans-serif" font-size="13" lengthAdjust="spacing" textLength="41" x="149" y="294.4951">food_id</text></g><!--link Food_Items to Daily_Rollout--><g id="link_Food_Items_Daily_Rollout"><path codeLine="68" d="M554.1256,149.2638 C577.0256,177.1638 586.8583,189.1479 608.9183,216.0179 " fill="none" id="Food_Items-Daily_Rollout" style="stroke:#181818;stroke-width:1.0;"/><line style="stroke:#181818;stroke-width:1.0;" x1="548.4959" x2="554.6797" y1="148.7097" y2="143.6341"/><line style="stroke:#181818;stroke-width:1.0;" x1="550.3992" x2="556.583" y1="151.0286" y2="145.953"/><line style="stroke:#181818;stroke-width:1.0;" x1="554.1256" x2="549.05" y1="149.2638" y2="143.08"/><line style="stroke:#181818;stroke-width:1.0;" x1="615.2637" x2="624.9774" y1="223.7469" y2="226.1228"/><line style="stroke:#181818;stroke-width:1.0;" x1="615.2637" x2="615.7026" y1="223.7469" y2="233.7372"/><line style="stroke:#181818;stroke-width:1.0;" x1="615.2637" x2="620.34" y1="223.7469" y2="229.93"/><ellipse cx="611.4565" cy="219.1095" fill="none" rx="4" ry="4" style="stroke:#181818;stroke-width:1.0;"/><text fill="#000000" font-family="sans-serif" font-size="13" lengthAdjust="spacing" textLength="41" x="587" y="187.4951">food_id</text></g><!--link Daily_Rollout to Rollout_Voting--><g id="link_Daily_Rollout_Rollout_Voting"><path codeLine="70" d="M668,356.07 C668,391.23 668,409.63 668,443.19 " fill="none" id="Daily_Rollout-Rollout_Voting" style="stroke:#181818;stroke-width:1.0;"/><line style="stroke:#181818;stroke-width:1.0;" x1="664" x2="672" y1="352.07" y2="352.07"/><line style="stroke:#181818;stroke-width:1.0;" x1="664" x2="672" y1="355.07" y2="355.07"/><line style="stroke:#181818;stroke-width:1.0;" x1="668" x2="668" y1="356.07" y2="348.07"/><line style="stroke:#181818;stroke-width:1.0;" x1="668" x2="674" y1="453.19" y2="461.19"/><line style="stroke:#181818;stroke-width:1.0;" x1="668" x2="662" y1="453.19" y2="461.19"/><line style="stroke:#181818;stroke-width:1.0;" x1="668" x2="668" y1="453.19" y2="461.19"/><ellipse cx="668" cy="447.19" fill="none" rx="4" ry="4" style="stroke:#181818;stroke-width:1.0;"/><text fill="#000000" font-family="sans-serif" font-size="13" lengthAdjust="spacing" textLength="52" x="669" y="401.4951">rollout_id</text></g><!--link Users to Rollout_Voting--><g id="link_Users_Rollout_Voting"><path codeLine="71" d="M366.2027,361.9798 C389.1327,379.9798 409.21,392.86 436,405 C499.12,433.6 527.53,403.01 589,435 C602,441.76 601.1198,439.1133 611.9998,449.1833 " fill="none" id="Users-Rollout_Voting" style="stroke:#181818;stroke-width:1.0;"/><line style="stroke:#181818;stroke-width:1.0;" x1="360.5865" x2="365.5263" y1="362.6563" y2="356.3635"/><line style="stroke:#181818;stroke-width:1.0;" x1="362.9463" x2="367.886" y1="364.5087" y2="358.2159"/><line style="stroke:#181818;stroke-width:1.0;" x1="366.2027" x2="359.91" y1="361.9798" y2="357.04"/><line style="stroke:#181818;stroke-width:1.0;" x1="619.3388" x2="629.2856" y1="455.9759" y2="457.0066"/><line style="stroke:#181818;stroke-width:1.0;" x1="619.3388" x2="621.1344" y1="455.9759" y2="465.8134"/><line style="stroke:#181818;stroke-width:1.0;" x1="619.3388" x2="625.21" y1="455.9759" y2="461.41"/><ellipse cx="614.9354" cy="451.9004" fill="none" rx="4" ry="4" style="stroke:#181818;stroke-width:1.0;"/><text fill="#000000" font-family="sans-serif" font-size="13" lengthAdjust="spacing" textLength="42" x="437" y="401.4951">user_id</text></g><!--link Food_Items to Daily_Menu--><g id="link_Food_Items_Daily_Menu"><path codeLine="73" d="M494,151.08 C494,182.01 494,192.08 494,220.5 " fill="none" id="Food_Items-Daily_Menu" style="stroke:#181818;stroke-width:1.0;"/><line style="stroke:#181818;stroke-width:1.0;" x1="490" x2="498" y1="147.08" y2="147.08"/><line style="stroke:#181818;stroke-width:1.0;" x1="490" x2="498" y1="150.08" y2="150.08"/><line style="stroke:#181818;stroke-width:1.0;" x1="494" x2="494" y1="151.08" y2="143.08"/><line style="stroke:#181818;stroke-width:1.0;" x1="494" x2="500" y1="230.5" y2="238.5"/><line style="stroke:#181818;stroke-width:1.0;" x1="494" x2="488" y1="230.5" y2="238.5"/><line style="stroke:#181818;stroke-width:1.0;" x1="494" x2="494" y1="230.5" y2="238.5"/><ellipse cx="494" cy="224.5" fill="none" rx="4" ry="4" style="stroke:#181818;stroke-width:1.0;"/><text fill="#000000" font-family="sans-serif" font-size="13" lengthAdjust="spacing" textLength="41" x="495" y="187.4951">food_id</text></g><!--link Daily_Menu to Daily_Menu_Response--><g id="link_Daily_Menu_Daily_Menu_Response"><path codeLine="75" d="M490.8761,347.5882 C488.9061,383.8582 487.6598,406.8967 485.6798,443.2167 " fill="none" id="Daily_Menu-Daily_Menu_Response" style="stroke:#181818;stroke-width:1.0;"/><line style="stroke:#181818;stroke-width:1.0;" x1="487.0989" x2="495.0872" y1="343.3772" y2="343.8111"/><line style="stroke:#181818;stroke-width:1.0;" x1="486.9362" x2="494.9245" y1="346.3728" y2="346.8066"/><line style="stroke:#181818;stroke-width:1.0;" x1="490.8761" x2="491.31" y1="347.5882" y2="339.6"/><line style="stroke:#181818;stroke-width:1.0;" x1="485.1355" x2="490.6911" y1="453.2019" y2="461.5166"/><line style="stroke:#181818;stroke-width:1.0;" x1="485.1355" x2="478.7089" y1="453.2019" y2="460.8634"/><line style="stroke:#181818;stroke-width:1.0;" x1="485.1355" x2="484.7" y1="453.2019" y2="461.19"/><ellipse cx="485.4621" cy="447.2108" fill="none" rx="4" ry="4" style="stroke:#181818;stroke-width:1.0;"/><text fill="#000000" font-family="sans-serif" font-size="13" lengthAdjust="spacing" textLength="83" x="489" y="401.4951">daily_menu_id</text></g><!--link Users to Daily_Menu_Response--><g id="link_Users_Daily_Menu_Response"><path codeLine="76" d="M321.129,364.1041 C330.129,380.6141 337,390.64 349,405 C366.23,425.62 373.8475,433.8732 394.7675,450.2532 " fill="none" id="Users-Daily_Menu_Response" style="stroke:#181818;stroke-width:1.0;"/><line style="stroke:#181818;stroke-width:1.0;" x1="315.7024" x2="322.7266" y1="362.5066" y2="358.6776"/><line style="stroke:#181818;stroke-width:1.0;" x1="317.1383" x2="324.1625" y1="365.1406" y2="361.3116"/><line style="stroke:#181818;stroke-width:1.0;" x1="321.129" x2="317.3" y1="364.1041" y2="357.08"/><line style="stroke:#181818;stroke-width:1.0;" x1="402.6411" x2="412.6389" y1="456.4181" y2="456.6258"/><line style="stroke:#181818;stroke-width:1.0;" x1="402.6411" x2="405.2411" y1="456.4181" y2="466.0742"/><line style="stroke:#181818;stroke-width:1.0;" x1="402.6411" x2="408.94" y1="456.4181" y2="461.35"/><ellipse cx="397.9169" cy="452.7191" fill="none" rx="4" ry="4" style="stroke:#181818;stroke-width:1.0;"/><text fill="#000000" font-family="sans-serif" font-size="13" lengthAdjust="spacing" textLength="42" x="350" y="401.4951">user_id</text></g><!--link Users to User_Notification--><g id="link_Users_User_Notification"><path codeLine="78" d="M268.1678,365.098 C266.2078,375.008 266.09,377.3 265,387 C262.6,408.4 261.8402,414.0136 262.6502,434.8336 " fill="none" id="Users-User_Notification" style="stroke:#181818;stroke-width:1.0;"/><line style="stroke:#181818;stroke-width:1.0;" x1="265.0199" x2="272.8679" y1="360.3979" y2="361.9501"/><line style="stroke:#181818;stroke-width:1.0;" x1="264.4379" x2="272.2858" y1="363.3409" y2="364.8931"/><line style="stroke:#181818;stroke-width:1.0;" x1="268.1678" x2="269.72" y1="365.098" y2="357.25"/><line style="stroke:#181818;stroke-width:1.0;" x1="263.039" x2="269.3455" y1="444.826" y2="452.5867"/><line style="stroke:#181818;stroke-width:1.0;" x1="263.039" x2="257.3545" y1="444.826" y2="453.0533"/><line style="stroke:#181818;stroke-width:1.0;" x1="263.039" x2="263.35" y1="444.826" y2="452.82"/><ellipse cx="262.8057" cy="438.8306" fill="none" rx="4" ry="4" style="stroke:#181818;stroke-width:1.0;"/><text fill="#000000" font-family="sans-serif" font-size="13" lengthAdjust="spacing" textLength="42" x="266" y="401.4951">user_id</text></g><!--SRC=[ZLFHReCW57ttAuYlZJ-mDzVQhCdQ9iOsUoDKRnSo5IVOnRJxzm6r5GfkyyLmxe5pEFS2jQ2YH-6EGyj3T0wG_6QeaqjC2_I4LfjCOr6aVr0r9Ui1xAAcYxu1YIMRtLg3HzfoWMjIANGVf_ENEDM5ahZuTn30O6N9M85N0Yh3pr5XFZ-wuD5eMfehR97CL-luLMEKOt8Yj2I7KfMUjzihNW3FMze8oce9PybRvjXP0XG7adyOZWPasfMRa8K8cGBWbWXQlnlmPqTAgUiMMZXH-F8ONCWhzJXbPSawCHfihu3NNq643YVE4hskW9Hk_wnB68A35DupPN5KFEcrLz1hnix4kT4QwcuylD1O9R5_9cxUqNisJe4thERmjyWl3w8T3habPqYfDuKtCfGZpOcQhb6eDj17gGeu9-zmwxHdmsEdPcwK-ZsZooMAs1bP8omvuK0FW_6jJNA7PCF0GxP6poRRfO5lJuxQC0v6Q7jsgNVJaqPKLtqkDEumx_rNMwpEFrYPs3BwiTXErqtk3m00]--></g></svg>